<?xml version="1.0" encoding="UTF-8"?>
<svg id="Layer_2" data-name="Layer 2" xmlns="http://www.w3.org/2000/svg" viewBox="0 0 402.4 385.77">
  <defs>
    <style>
      .cls-1 {
        fill: #11526d;
      }

      .cls-2 {
        fill: #1d6278;
      }

      .cls-3 {
        fill: #187c8c;
      }
    </style>
  </defs>
  <g id="Layer_1-2" data-name="Layer 1">
    <polygon class="cls-3" points="393.87 111.1 361.87 129.54 329.92 148.03 297.76 129.38 265.6 110.79 233.6 92.24 201.55 73.7 169.65 92.08 137.81 110.52 105.91 128.91 73.96 147.34 42.12 128.75 10.38 110.26 42.23 91.87 74.07 73.49 105.86 55.1 105.91 55.1 137.7 36.72 137.75 36.72 169.54 18.33 169.6 18.33 201.39 0 233.34 18.44 265.28 36.88 265.34 36.88 297.39 55.42 329.45 73.91 329.5 73.91 361.66 92.51 393.87 111.1"/>
    <polygon class="cls-2" points="190.47 312.81 190.47 385.77 158.74 367.43 127 349.15 95.21 330.77 63.47 312.44 63.47 385.45 31.74 367.12 0 348.84 0 129.86 31.74 148.19 63.47 166.47 63.47 239.48 95.21 257.81 127 276.14 158.74 294.48 190.47 312.81"/>
    <polygon class="cls-1" points="402.4 130.71 402.4 348.84 370.67 367.12 338.93 385.45 338.93 312.44 307.14 330.82 275.4 349.15 243.67 367.43 211.93 385.77 211.93 312.81 243.67 294.48 275.4 276.14 307.14 257.81 338.93 239.48 338.93 167.32 370.67 148.99 402.4 130.71"/>
    <polygon class="cls-1" points="201.47 98.64 100.5 156.92 92.2 172.06 92.2 229.84 92.46 229.98 201.47 167.69 201.47 98.64"/>
    <polygon class="cls-2" points="310.2 172.73 303.07 157.47 201.47 98.64 201.47 167.56 310.2 229.69 310.2 172.73"/>
    <path class="cls-3" d="m201.47,167.56v.13l-109.01,62.29,97.64,56.39,2.61,1.5h17.01c.26,0,1.39-.53,3.23-1.5,17.33-9.1,97.25-56.54,97.25-56.54v-.14l-108.73-62.13Z"/>
  </g>
</svg>